<svg width="58" height="58" viewBox="0 0 58 58" fill="none" xmlns="http://www.w3.org/2000/svg">
<g filter="url(#filter0_d_391_1016)">
<path d="M4 27.9487C4 14.1416 15.1929 2.94873 29 2.94873H41.5461V32.9964C41.5461 35.7578 39.3075 37.9964 36.5461 37.9964H4V27.9487Z" fill="url(#paint0_linear_391_1016)"/>
<path d="M29 3.94873H40.5461V32.9964C40.5461 35.2056 38.7553 36.9964 36.5461 36.9964H5V27.9487C5 14.6939 15.7452 3.94873 29 3.94873Z" stroke="#D9D9D9" stroke-width="2"/>
</g>
<g filter="url(#filter1_d_391_1016)">
<mask id="path-3-inside-1_391_1016" fill="white">
<path d="M53.7949 40.0001C53.7663 45.5229 49.2661 49.9745 43.7433 49.943L4.00025 49.7163L4.25734 1.10392e-06L54.0003 0.283669L53.7949 40.0001Z"/>
</mask>
<path d="M55.7948 40.0115C55.7606 46.6389 50.3603 51.9807 43.733 51.9429L3.98991 51.7163L4.0106 47.7164L43.7537 47.943C48.1719 47.9682 51.7721 44.4069 51.7949 39.9887L55.7948 40.0115ZM4.25734 1.10392e-06L54.0003 0.283669L4.25734 1.10392e-06ZM56.0002 0.295074L55.7948 40.0115C55.7606 46.6389 50.3603 51.9807 43.733 51.9429L43.7537 47.943C48.1719 47.9682 51.7721 44.4069 51.7949 39.9887L52.0003 0.272263L56.0002 0.295074ZM4.00025 49.7163L4.25734 1.10392e-06L4.00025 49.7163Z" fill="#D9D9D9" mask="url(#path-3-inside-1_391_1016)"/>
</g>
<defs>
<filter id="filter0_d_391_1016" x="0" y="2.94873" width="45.5461" height="43.0479" filterUnits="userSpaceOnUse" color-interpolation-filters="sRGB">
<feFlood flood-opacity="0" result="BackgroundImageFix"/>
<feColorMatrix in="SourceAlpha" type="matrix" values="0 0 0 0 0 0 0 0 0 0 0 0 0 0 0 0 0 0 127 0" result="hardAlpha"/>
<feOffset dy="4"/>
<feGaussianBlur stdDeviation="2"/>
<feComposite in2="hardAlpha" operator="out"/>
<feColorMatrix type="matrix" values="0 0 0 0 0 0 0 0 0 0 0 0 0 0 0 0 0 0 0.25 0"/>
<feBlend mode="normal" in2="BackgroundImageFix" result="effect1_dropShadow_391_1016"/>
<feBlend mode="normal" in="SourceGraphic" in2="effect1_dropShadow_391_1016" result="shape"/>
</filter>
<filter id="filter1_d_391_1016" x="0.000244141" y="0" width="58" height="57.9434" filterUnits="userSpaceOnUse" color-interpolation-filters="sRGB">
<feFlood flood-opacity="0" result="BackgroundImageFix"/>
<feColorMatrix in="SourceAlpha" type="matrix" values="0 0 0 0 0 0 0 0 0 0 0 0 0 0 0 0 0 0 127 0" result="hardAlpha"/>
<feOffset dy="4"/>
<feGaussianBlur stdDeviation="2"/>
<feComposite in2="hardAlpha" operator="out"/>
<feColorMatrix type="matrix" values="0 0 0 0 0 0 0 0 0 0 0 0 0 0 0 0 0 0 0.25 0"/>
<feBlend mode="normal" in2="BackgroundImageFix" result="effect1_dropShadow_391_1016"/>
<feBlend mode="normal" in="SourceGraphic" in2="effect1_dropShadow_391_1016" result="shape"/>
</filter>
<linearGradient id="paint0_linear_391_1016" x1="4" y1="6.38098" x2="33.7357" y2="38.8919" gradientUnits="userSpaceOnUse">
<stop offset="0.420833" stop-color="#071439"/>
<stop offset="1" stop-color="#00B4D8"/>
</linearGradient>
</defs>
</svg>
