<svg width="17" height="21" viewBox="0 0 17 21" fill="none" xmlns="http://www.w3.org/2000/svg">
<path d="M13.8033 14.435C12.953 15.3273 11.2042 17.1624 9.94705 18.4816C9.15895 19.3085 7.84065 19.3081 7.05256 18.4811C5.81765 17.1853 4.10241 15.3854 3.1967 14.435C0.267767 11.3616 0.267767 6.37854 3.1967 3.30509C6.12563 0.231638 10.8744 0.231638 13.8033 3.30509C16.7322 6.37854 16.7322 11.3616 13.8033 14.435Z" stroke="white" stroke-opacity="0.8" stroke-width="2" stroke-linecap="round" stroke-linejoin="round"/>
<path d="M11.3125 8.87006C11.3125 10.5 10.0533 11.8213 8.5 11.8213C6.9467 11.8213 5.6875 10.5 5.6875 8.87006C5.6875 7.24012 6.9467 5.91879 8.5 5.91879C10.0533 5.91879 11.3125 7.24012 11.3125 8.87006Z" stroke="white" stroke-opacity="0.8" stroke-width="2" stroke-linecap="round" stroke-linejoin="round"/>
</svg>
